<svg id="レイヤー_1" data-name="レイヤー 1" xmlns="http://www.w3.org/2000/svg" viewBox="0 0 218.07 76.53"><defs><style>.cls-1{fill:#080609;}</style></defs><path class="cls-1" d="M161.14,27.49a86.51,86.51,0,0,0,15.36-2c.72-.16,2.1-1,1.51-1.88s-2.28-.73-3.17-.54c-1.06.24-1.73.38-3,.59s-2.24.37-3.37.52-2.16.26-3.25.36c-1.29.11-2,.15-3.13.2-1,0-2.58.25-2.93,1.34s1.23,1.45,1.95,1.42Z"/><path class="cls-1" d="M166.8,28.49a28.82,28.82,0,0,1,.45,10.87c0,.23.33.53.45.65a9.61,9.61,0,0,0,1.4,1.07c.15.1,2.27,1.32,2.31,1.05A29.48,29.48,0,0,0,170.93,31c-.07-.27-.65-.7-.82-.84a13.13,13.13,0,0,0-1.58-1.1,5.9,5.9,0,0,0-1.35-.68c-.16,0-.45-.15-.38.13Z"/><path class="cls-1" d="M193.08,24.4c5.44.1,10.88,0,16.31-.42.92-.06,2.26-.74,1.91-1.86s-2-1.49-3-1.41c-5,.36-10.06.5-15,.41-1,0-2.53.2-2.63,1.42s1.42,1.84,2.35,1.86Z"/><path class="cls-1" d="M190.34,28.13l11.41-.23c1.9,0,3.81-.15,5.71-.12,1.12,0,.8.72.58,1.56l-.67,2.55c-.14.53,1.62-.34,1.76-.42a13.2,13.2,0,0,0,1.67-1c.24-.17.8-.47.88-.77l.71-2.72c.15-.59.58-1.43-.18-1.71a7.88,7.88,0,0,0-2.61,0l-3,.06-12.13.24a6.42,6.42,0,0,0-2.82,1.26,4.68,4.68,0,0,0-1.21.89c-.07.08-.39.4-.07.4Z"/><path class="cls-1" d="M193.1,34.05h14a2.06,2.06,0,0,0,2.16-2.16,2.63,2.63,0,0,0-2.77-1.95h-14a2.07,2.07,0,0,0-2.16,2.16,2.63,2.63,0,0,0,2.77,1.95Z"/><path class="cls-1" d="M189.43,28.71c1.22,5.76-1.14,11.54-5.2,15.63-.62.62.79,1.37,1.24,1.59a6.87,6.87,0,0,0,1.81.65c.31.05,1,.21,1.25,0,4.34-4.37,6.84-10.27,5.54-16.45-.19-.89-1.9-1.46-2.64-1.68-.36-.11-2.18-.58-2,.29Z"/><path class="cls-1" d="M199.18,35.18v.59a1.16,1.16,0,0,0,.29.61A1.73,1.73,0,0,0,200,37a2.76,2.76,0,0,0,.84.42,3,3,0,0,0,1,.25l.61,0a2.34,2.34,0,0,0,1-.27l.35-.28a1,1,0,0,0,.22-.77v-.58a1.2,1.2,0,0,0-.29-.61,1.94,1.94,0,0,0-.57-.57,3,3,0,0,0-.85-.43,3.15,3.15,0,0,0-1-.24l-.62,0a2.24,2.24,0,0,0-1,.27l-.34.28a.92.92,0,0,0-.22.76Z"/><path class="cls-1" d="M197,39.37h10.28c.83,0,2.07-.46,1.55-1.52a3.57,3.57,0,0,0-3-1.72H195.53c-.83,0-2.06.46-1.54,1.53a3.55,3.55,0,0,0,3,1.71Z"/><path class="cls-1" d="M201.4,43.6l.2-.09c.22-.11-.56.17-.32.11l.39-.1c-.65.2-.21,0,0,0s.27,0,.41,0-.38,0-.17,0l.23,0,.41,0a8,8,0,0,1,.85.19l-.35-.11a4.61,4.61,0,0,1,1.82,1l-.23-.22a2.21,2.21,0,0,1,.61,1l-.07-.31a2.13,2.13,0,0,1,0,.87l.08-.36c-.06.26-.21.48-.28.73.15-.25.17-.29.07-.13l-.12.17-.13.17c-.14.17-.09.12.13-.15-.2.16-.38.39-.57.57l.19-.17-.18.16-.38.3c-.25.2-.51.38-.77.57l-.27.19.28-.18-.2.11c-.23.13-.13.08.29-.13l-.21.09q.6-.2.24-.09c-.21,0-.15,0,.18,0l-.24,0c.27,0,.32,0,.13,0a3,3,0,0,1-.41-.09l.35.11a1.69,1.69,0,0,1-.65-.37l.23.22a.83.83,0,0,1-.2-.32l.07.31a.5.5,0,0,1,0-.21l-.09.37c.05-.17,0-.1-.13.19.17-.29.43-.72.23-1.07s-.72-.36-1-.33a4.33,4.33,0,0,0-1.7.6,4,4,0,0,0-1.36,1.17,1.57,1.57,0,0,0-.28,1.54,1.83,1.83,0,0,0,.78.73,4.2,4.2,0,0,0,3.06.08A11.12,11.12,0,0,0,205.68,49a18.57,18.57,0,0,0,2.16-1.8c1.13-1.12,2.34-2.78,1.68-4.44a4,4,0,0,0-2.59-2,7.68,7.68,0,0,0-5.48.31,5.42,5.42,0,0,0-1.61,1.06c-.24.24-.69.77-.65,1.17.1,1,1.65.59,2.21.34Z"/><path class="cls-1" d="M198.13,39.68a7,7,0,0,1-.27,1.27l.07-.24a7.74,7.74,0,0,1-1,2,11.49,11.49,0,0,1-.74,1c-.15.17-.31.33-.47.49s-.24.23-.13.13l-.18.16A12.16,12.16,0,0,1,193.23,46c-.18.1-.15.14,0,0a1.35,1.35,0,0,1-.34.17l-.65.29-.66.26-.19.07.18-.06c0,.06-.31.1-.38.12-.31.09-.92.27-1.11.59s0,.51.29.63a3.46,3.46,0,0,0,1.52.29,6.2,6.2,0,0,0,1.92-.22c4.12-1.25,8.77-4.11,9.32-8.81,0-.31-.62-.51-.77-.55a6.36,6.36,0,0,0-3.53.24c-.29.14-.65.29-.69.65Z"/><path class="cls-1" d="M157.71,46.36c2.17.15,4-.81,5.95-1.58a22.23,22.23,0,0,1,5.39-1.31c1.74-.24,3.5-.42,5.26-.49a7.35,7.35,0,0,1,4.49.86,2.62,2.62,0,0,0,3.42,0,2.16,2.16,0,0,0-.39-3.15c-3.77-2.61-8-2.28-12.37-1.81a33,33,0,0,0-6.63,1.23c-1.85.59-3.74,1.92-5.73,1.79A2,2,0,0,0,155,44.16a2.77,2.77,0,0,0,2.72,2.2Z"/><path class="cls-1" d="M63.46,14.16c1.46.06,3.8,0,4.88,1.22s0,2.14-.94,2.93A19.1,19.1,0,0,1,57.16,22.9c-3,.39-1.34,4.84,1.23,4.63s5.78-.28,8.08,1.4a8.76,8.76,0,0,1,3.15,5.15c1.2,5.09-1.5,10.15-4.91,13.76-4.18,4.44-9.53,7.61-14.95,10.29-2.86,1.42-5.78,2.73-8.7,4a44.64,44.64,0,0,1-9.23,3.33,14.92,14.92,0,0,1-9-.65c-2.88-1.28-4.37-4-5.83-6.58a2.64,2.64,0,0,0-3.09-1.41,2.08,2.08,0,0,0-.79,3C14.85,63,16.75,66.09,19.86,68a17.48,17.48,0,0,0,9.89,2.47,30.89,30.89,0,0,0,10.43-2.6c3.47-1.42,6.9-3,10.29-4.63C61.46,58,77.08,48.54,74,34a14.59,14.59,0,0,0-5.41-8.69c-3.33-2.43-7.48-2.76-11.46-2.44l1.23,4.63a22.7,22.7,0,0,0,7.92-2.46c2.28-1.22,5.12-2.95,6.36-5.33,1.43-2.76.15-5.89-2-7.82s-5.45-2.27-8.4-2.39C61,9.47,60.41,11,60.68,12a2.89,2.89,0,0,0,2.78,2.12Z"/><path class="cls-1" d="M36.81,22.34A48.6,48.6,0,0,1,10.52,45c-.47.17,1.42.91,1.53.95.72.26,2.22,1,3,.67A49,49,0,0,0,41.59,23.82c.11-.21-4.38-2.21-4.78-1.48Z"/><path class="cls-1" d="M73.25,45.56a9.29,9.29,0,0,0,1.5,3.35,11.2,11.2,0,0,0,3.09,2.89,4.85,4.85,0,0,0,1.71.52,5.13,5.13,0,0,0,1.79,0c.24-.06.8-.16.81-.5s-.37-.56-.63-.72c.46.3.09,0,0,0l-.21-.16-.45-.36a11.36,11.36,0,0,1-.85-.85l.22.25a9.43,9.43,0,0,1-2.13-4.14c-.07-.31-.85-.61-1.06-.69a6.11,6.11,0,0,0-1.89-.38,3.34,3.34,0,0,0-1.54.17l-.28.17a.35.35,0,0,0-.07.46Z"/><path class="cls-1" d="M87.84,17c.4-.29-.12.07.12-.08l.33-.21c.22-.13.46-.25.69-.36s.48-.2.72-.29c.48-.18-.34.08.15-.05l.3-.08.76-.14.24,0c.15,0,.1,0-.16,0h.78a.91.91,0,1,0-.14,0c.14,0,.32,0,.46.06.46.06-.41-.13-.11,0l.15,0c.18.06.1,0-.26-.11,0,0,.5.27.15.05s.1.09.12.1c-.14,0-.32-.3-.06,0a.94.94,0,0,1,.1.1l-.08-.09c.08,0,.13.24.18.3s0-.26,0,.08c0,.11.05.22.07.33a1.4,1.4,0,0,1,0,.35c0-.19,0,0,0,.09s-.07.2-.1.3,0,0,0,.08a2.41,2.41,0,0,1-.21.24s-.31.23-.13.12-.15.08-.16.07l.21-.07c-.22,0-.16,0,.17,0-.78,0-2,.49-1.39,1.47a3.82,3.82,0,0,0,3.12,1.46,3.1,3.1,0,0,0,3.39-3c0-1.82-1.72-3.3-3.26-4a10.71,10.71,0,0,0-10.52,1.21c-.33.23-.22.77-.06,1a2.81,2.81,0,0,0,1.24,1,3.25,3.25,0,0,0,3.21,0Z"/><path class="cls-1" d="M89.17,20.75c-2.22-.15-5-.18-6.7,1.55a3.69,3.69,0,0,0,0,4.92C84,29.15,86.62,29.63,89,29.7c2.6.08,5.25-.21,7.85-.36a64.8,64.8,0,0,1,7.37-.32,3.53,3.53,0,0,1,3.23,3.36c.54,4.22-2.91,6.92-6.46,8.28-4.46,1.71-10,3.19-13.94-.32A3.72,3.72,0,0,0,83.57,40c-.77.26-1.73,1.07-.86,1.84,3.89,3.42,9.48,3.89,14.38,3,4.49-.85,10-2.46,13.09-6,2.51-2.81,3.3-7.45.4-10.3-1.8-1.78-4.59-2.13-7-2.13-2.75,0-5.52.27-8.26.42-1.56.08-3.12.18-4.68.25-1,0-2.23.2-3.08-.41a2.6,2.6,0,0,1-1-2.41c.17-.87.65-.89,1.38-.84.91.07,2.62,0,3-1s-1-1.54-1.78-1.6Z"/><path class="cls-1" d="M123.52,8.64c-2.9,1.41-5.29,4.38-4.57,7.77.9,4.18,5.08,6.1,8.94,6.61a44.22,44.22,0,0,0,24.52-3.78c1.16-.54-2.57-3.5-3.91-2.87a42.28,42.28,0,0,1-19.4,4,35.79,35.79,0,0,1-4.84-.51c-.07,0-.69-.21-.39-.05.47.25.09.05,0-.16a7.76,7.76,0,0,1-.59-1.76c-.36-2.84,1.71-5.19,4.12-6.37,1.17-.57-2.58-3.52-3.9-2.87Z"/><path class="cls-1" d="M140.15,15.89c4,3.79,6,9.4,6.56,14.8.46,4.86-.53,11.18-5.22,13.76-4.46,2.45-10.93,2.91-15.46.47-4.26-2.3-6.94-8.1-4-12.43A14.73,14.73,0,0,1,127.9,28a29.9,29.9,0,0,1,8.4-2.65c2.38-.39,6.07-1.1,8.11.59,1.72,1.43,2.39,4.25,2.55,6.39.33,4.4-1.26,9.07-5.19,11.37a23.68,23.68,0,0,1-3.28,1.87,25.45,25.45,0,0,1-4.23,1c-3.2.65-6.42,1.22-9.66,1.63a67.71,67.71,0,0,1-21-.27,8,8,0,0,0-4.53.24c-1.36.54-2.81,1.71-2.52,3.34.51,3,4.15,4.84,6.83,5.09l-.66-1.81a4.14,4.14,0,0,0,.54,6c2.61,2,6.34,1.08,9-.18.73-.34,1.78-1.38,1.06-2.18s-2.44-.21-3.22.16a2.55,2.55,0,0,1-3-.55c-.56-.66-1-1.93-.4-2.67s.41-1.72-.66-1.82A5.55,5.55,0,0,1,102.65,52a16.28,16.28,0,0,1-1.28-1.82l-.08-.35a6.94,6.94,0,0,0-1.41.91,2.6,2.6,0,0,0,.64.09A70.67,70.67,0,0,0,111.09,52a101.18,101.18,0,0,0,21.46-2.19c3.5-.68,6.85-1.3,9.94-3.16,2.48-1.5,4.81-2.88,6.51-5.31a15.74,15.74,0,0,0,1.74-14.55,7.31,7.31,0,0,0-6.9-4.8,33.27,33.27,0,0,0-10.22,1.13c-6,1.54-13.3,4.47-16.45,10.15-2.77,5-.22,11,4.32,13.9,5.53,3.54,13,2.82,19,.75a16.13,16.13,0,0,0,8.62-6.5,18.11,18.11,0,0,0,2.5-9.31c.08-6.64-2.26-13.88-7.15-18.52-1.3-1.24-5.75.94-4.28,2.34Z"/></svg>